<svg xmlns="http://www.w3.org/2000/svg" viewBox="0 0 16 16" id="xbox"><path d="M5.287 1.416c.843.331 1.66.77 2.427 1.304a.5.5 0 0 0 .572 0 11.828 11.828 0 0 1 2.427-1.305.5.5 0 0 0-.005-.932c-1.686-.641-3.731-.641-5.416 0a.5.5 0 0 0-.005.933z" fill="#ffffff"></path><path d="M12.533 1.418A.499.499 0 0 0 12 1.397a21.93 21.93 0 0 0-2.691 1.832.498.498 0 0 0-.034.753c1.768 1.685 4.22 6.849 4.781 9.226-1.22-2.062-3.937-6.915-5.716-8.574a.5.5 0 0 0-.682 0c-1.781 1.66-4.49 6.517-5.71 8.58.561-2.376 3.006-7.546 4.775-9.232a.501.501 0 0 0-.032-.753A22.006 22.006 0 0 0 4 1.397a.505.505 0 0 0-.534.021A7.998 7.998 0 0 0 0 8a7.93 7.93 0 0 0 1.949 5.214C3.454 14.984 5.659 16 8 16s4.546-1.016 6.057-2.792A7.924 7.924 0 0 0 16 8a7.996 7.996 0 0 0-3.467-6.582z" fill="#ffffff"></path></svg>